<svg xmlns="http://www.w3.org/2000/svg" width="18" height="17.1" viewBox="0 0 18 17.1">
  <g id="Favourites_Icon_On" transform="translate(-346.55 -334.373)">
    <path id="star_24dp_5F6368_FILL1_wght400_GRAD0_opsz24_1_" data-name="star_24dp_5F6368_FILL1_wght400_GRAD0_opsz24 (1)" d="M82.473-867.718l1.05-4.541L80-875.313l4.654-.4L86.464-880l1.81,4.283,4.654.4-3.523,3.054,1.05,4.541-3.992-2.408Z" transform="translate(269.086 1216.781)" fill="#ef0"/>
    <path id="star_24dp_5F6368_FILL0_wght400_GRAD0_opsz24" d="M86.165-866.657,89-868.367l2.835,1.732-.743-3.24,2.5-2.16-3.285-.293L89-875.388l-1.305,3.037-3.285.293,2.5,2.182ZM83.443-862.9l1.462-6.323L80-873.475l6.48-.562L89-880l2.52,5.962,6.48.563-4.9,4.253,1.462,6.323L89-866.253ZM89-870.775Z" transform="translate(266.55 1214.373)"/>
  </g>
</svg>
